# xmcd
#
# Track frame offsets:
#	150
#	18876
#	33036
#	44482
#	62495
#	73157
#	88034
#	98828
#	112470
#	123772
#	138175
#	155621
#	170063
#	182754
#	202092
#	216060
#	228626
#	242373
#
# Disc length: 3417 seconds
#
# Revision: 2
# Processed by: cddbd v1.5.2PL0 Copyright (c) Steve Scherf et al.
# Submitted via: audiograbber 1.83.01
#
DISCID=fc0d5712
DTITLE=Jeffrey De Bruyn - Country Op Sy Beste
DYEAR=2006
DGENRE=Country
TTITLE0=Baby Blue
TTITLE1=Don't Forget To Remember
TTITLE2=Behind Closed Doors
TTITLE3=I Need You
TTITLE4=I Can't Stop Loving You
TTITLE5=Good Hearted Woman
TTITLE6=Blue Eyes Crying In The Rain
TTITLE7=Never Ending Song Of Love
TTITLE8=Tennessee Waltz
TTITLE9=Room Full Of Roses
TTITLE10=Send Me The Pillow That You Dream On
TTITLE11=Don't Let Me Cross Over
TTITLE12=The Most Beautiful Girl In The World
TTITLE13=French Song
TTITLE14=Maggie
TTITLE15=I Fall To Pieces
TTITLE16=Mamma Don't Let Your Babies Grow Up To Be Cowboys
TTITLE17=Wasted Days And Wasted Nights
EXTD=
EXTT0=
EXTT1=
EXTT2=
EXTT3=
EXTT4=
EXTT5=
EXTT6=
EXTT7=
EXTT8=
EXTT9=
EXTT10=
EXTT11=
EXTT12=
EXTT13=
EXTT14=
EXTT15=
EXTT16=
EXTT17=
PLAYORDER=
